<?xml version="1.0" encoding="UTF-8" standalone="no"?>
<!DOCTYPE svg PUBLIC "-//W3C//DTD SVG 1.1//EN" "http://www.w3.org/Graphics/SVG/1.1/DTD/svg11.dtd">
<svg width="100%" height="100%" viewBox="0 0 16 16" version="1.1" xmlns="http://www.w3.org/2000/svg" xmlns:xlink="http://www.w3.org/1999/xlink" xml:space="preserve" xmlns:serif="http://www.serif.com/" style="fill-rule:evenodd;clip-rule:evenodd;stroke-linejoin:round;stroke-miterlimit:2;">
    <path d="M0,1C-0,0.451 0.451,0 1,0L15,0C15.549,-0 16,0.451 16,1L16,15C16,15.549 15.549,16 15,16L1,16C0.451,16 0,15.549 0,15L0,1ZM4,1L4,7L12,7L12,1L4,1ZM12,9L4,9L4,15L12,15L12,9ZM1,1L1,3L3,3L3,1L1,1ZM3,4L1,4L1,6L3,6L3,4ZM1,7L1,9L3,9L3,7L1,7ZM3,10L1,10L1,12L3,12L3,10ZM1,13L1,15L3,15L3,13L1,13ZM15,1L13,1L13,3L15,3L15,1ZM13,4L13,6L15,6L15,4L13,4ZM15,7L13,7L13,9L15,9L15,7ZM13,10L13,12L15,12L15,10L13,10ZM15,13L13,13L13,15L15,15L15,13Z" style="fill:white;fill-rule:nonzero;"/>
</svg>
